<mxfile host="app.diagrams.net" agent="Mozilla/5.0 (Windows NT 10.0; Win64; x64) AppleWebKit/537.36 (KHTML, like Gecko) Chrome/131.0.0.0 Safari/537.36" version="25.0.1">
  <diagram name="Página-1" id="lbKp-W_X5cq1iBLr4k5U">
    <mxGraphModel dx="1050" dy="530" grid="1" gridSize="10" guides="1" tooltips="1" connect="1" arrows="1" fold="1" page="1" pageScale="1" pageWidth="827" pageHeight="1169" math="0" shadow="0">
      <root>
        <mxCell id="0" />
        <mxCell id="1" parent="0" />
        <mxCell id="TXyXYrq3tWQpbJNDIby2-1" value="NETSMS" style="shape=cylinder3;whiteSpace=wrap;html=1;boundedLbl=1;backgroundOutline=1;size=15;verticalAlign=top;" vertex="1" parent="1">
          <mxGeometry x="290" y="330" width="220" height="130" as="geometry" />
        </mxCell>
        <mxCell id="TXyXYrq3tWQpbJNDIby2-7" value="Suspensão temporária" style="shape=process;whiteSpace=wrap;html=1;backgroundOutline=1;" vertex="1" parent="1">
          <mxGeometry x="60" y="40" width="120" height="60" as="geometry" />
        </mxCell>
        <mxCell id="TXyXYrq3tWQpbJNDIby2-8" value="Mudança endereço (mesma base)" style="shape=process;whiteSpace=wrap;html=1;backgroundOutline=1;" vertex="1" parent="1">
          <mxGeometry x="190" y="40" width="120" height="60" as="geometry" />
        </mxCell>
        <mxCell id="TXyXYrq3tWQpbJNDIby2-9" value="Migração SVA (em lote)" style="shape=process;whiteSpace=wrap;html=1;backgroundOutline=1;" vertex="1" parent="1">
          <mxGeometry x="450" y="40" width="120" height="60" as="geometry" />
        </mxCell>
        <mxCell id="TXyXYrq3tWQpbJNDIby2-10" value="Contratação ponto adicional que inverte PP." style="shape=process;whiteSpace=wrap;html=1;backgroundOutline=1;" vertex="1" parent="1">
          <mxGeometry x="320" y="40" width="120" height="60" as="geometry" />
        </mxCell>
        <mxCell id="TXyXYrq3tWQpbJNDIby2-11" value="Outros processos (mesma causa raiz)" style="shape=process;whiteSpace=wrap;html=1;backgroundOutline=1;" vertex="1" parent="1">
          <mxGeometry x="580" y="40" width="120" height="60" as="geometry" />
        </mxCell>
        <mxCell id="TXyXYrq3tWQpbJNDIby2-15" value="&lt;span style=&quot;background-color: initial;&quot;&gt;- Baixa &lt;b&gt;Solic Mudança Pacote&lt;/b&gt;;&lt;/span&gt;&lt;div&gt;&lt;br&gt;&lt;span style=&quot;background-color: initial;&quot;&gt;- Retorno suspensão temporária;&lt;/span&gt;&lt;br&gt;&lt;span style=&quot;background-color: initial;&quot;&gt;&lt;br&gt;&lt;/span&gt;&lt;/div&gt;&lt;div&gt;&lt;span style=&quot;background-color: initial;&quot;&gt;- Mantendo os mesmos produtos;&lt;/span&gt;&lt;/div&gt;" style="whiteSpace=wrap;html=1;aspect=fixed;align=left;fontSize=11;" vertex="1" parent="1">
          <mxGeometry x="60" y="140" width="120" height="120" as="geometry" />
        </mxCell>
        <mxCell id="TXyXYrq3tWQpbJNDIby2-16" value="&lt;span style=&quot;background-color: initial;&quot;&gt;- Baixa &lt;b&gt;Solic Mudança Endereço&lt;/b&gt;;&lt;/span&gt;&lt;br&gt;&lt;br&gt;&lt;span style=&quot;background-color: initial;&quot;&gt;- Mantendo os mesmos produtos;&lt;/span&gt;" style="whiteSpace=wrap;html=1;aspect=fixed;align=left;fontSize=11;" vertex="1" parent="1">
          <mxGeometry x="190" y="140" width="120" height="120" as="geometry" />
        </mxCell>
        <mxCell id="TXyXYrq3tWQpbJNDIby2-17" value="&lt;span style=&quot;background-color: initial;&quot;&gt;- Alteração em 2 JOBs&lt;/span&gt;&lt;div&gt;&lt;span style=&quot;background-color: initial;&quot;&gt;&lt;br&gt;&lt;/span&gt;&lt;/div&gt;&lt;div&gt;&lt;span style=&quot;background-color: initial;&quot;&gt;- Na recontratação dos novos SVAs (substituição), deve manter os mesmos preços/reajustes anteriores.&lt;/span&gt;&lt;/div&gt;" style="whiteSpace=wrap;html=1;aspect=fixed;align=left;fontSize=11;" vertex="1" parent="1">
          <mxGeometry x="450" y="140" width="120" height="120" as="geometry" />
        </mxCell>
        <mxCell id="TXyXYrq3tWQpbJNDIby2-19" value="&lt;span style=&quot;background-color: initial;&quot;&gt;- Baixa &lt;b&gt;Solic Instalação PA&lt;/b&gt;;&lt;/span&gt;&lt;br&gt;&lt;br&gt;- Quando peso produto inverte tipo de ponto: PP &amp;gt; PA&lt;br&gt;&lt;br&gt;&lt;span style=&quot;background-color: initial;&quot;&gt;- Mantendo os mesmos produtos;&lt;/span&gt;" style="whiteSpace=wrap;html=1;aspect=fixed;align=left;fontSize=11;" vertex="1" parent="1">
          <mxGeometry x="320" y="140" width="120" height="120" as="geometry" />
        </mxCell>
        <mxCell id="TXyXYrq3tWQpbJNDIby2-20" value="- Assessment pra mapear, testar&amp;nbsp; e evidenciar processo que possuem impacto com override.&lt;div&gt;&lt;br&gt;&lt;/div&gt;&lt;div&gt;- Gerar HLE para cenários identificados.&lt;/div&gt;" style="whiteSpace=wrap;html=1;aspect=fixed;align=left;fontSize=11;" vertex="1" parent="1">
          <mxGeometry x="580" y="140" width="120" height="120" as="geometry" />
        </mxCell>
      </root>
    </mxGraphModel>
  </diagram>
</mxfile>
